<svg width="154.000000" height="15.279419" viewBox="0 0 154 15.2794" fill="none" xmlns="http://www.w3.org/2000/svg" xmlns:xlink="http://www.w3.org/1999/xlink">
	<desc>
			Created with Pixso.
	</desc>
	<defs/>
	<path id="Vector" d="M35.44 15.02L35.44 0.25L41.18 0.25C42.34 0.25 43.28 0.39 43.99 0.69C44.69 0.99 45.24 1.45 45.64 2.07C46.04 2.69 46.24 3.35 46.24 4.02C46.24 4.66 46.06 5.25 45.71 5.81C45.36 6.37 44.82 6.82 44.1 7.16C45.03 7.42 45.74 7.87 46.23 8.5C46.73 9.13 46.98 9.88 46.98 10.74C46.98 11.43 46.83 12.07 46.52 12.67C46.22 13.27 45.85 13.72 45.4 14.04C44.95 14.36 44.4 14.61 43.73 14.77C43.06 14.94 42.23 15.02 41.26 15.02L35.44 15.02ZM37.46 6.46L40.76 6.46C41.66 6.46 42.3 6.4 42.69 6.28C43.21 6.14 43.59 5.89 43.86 5.55C44.12 5.21 44.25 4.78 44.25 4.26C44.25 3.76 44.12 3.34 43.88 2.97C43.64 2.59 43.29 2.34 42.84 2.2C42.39 2.06 41.62 1.99 40.52 1.99L37.47 1.99L37.47 6.46L37.46 6.46ZM37.46 13.28L41.27 13.28C41.92 13.28 42.37 13.25 42.64 13.2C43.11 13.12 43.5 12.99 43.81 12.8C44.12 12.62 44.38 12.34 44.58 11.98C44.78 11.62 44.88 11.21 44.88 10.74C44.88 10.19 44.74 9.71 44.44 9.3C44.15 8.89 43.75 8.61 43.23 8.44C42.71 8.27 41.97 8.19 41 8.19L37.46 8.19L37.46 13.28Z" fill="#263238" fill-opacity="0.500000" fill-rule="nonzero"/>
	<path id="Vector" d="M50.02 15.02L50.02 0.25L61.06 0.25L61.06 1.99L52.04 1.99L52.04 6.52L60.49 6.52L60.49 8.25L52.04 8.25L52.04 13.28L61.42 13.28L61.42 15.02L50.02 15.02Z" fill="#263238" fill-opacity="0.500000" fill-rule="nonzero"/>
	<path id="Vector" d="M65.54 0.25L75.1 0.25L75.1 15.01L73.08 15.01L73.08 1.99L67.56 1.99L67.56 9.6C67.56 11.14 67.48 12.28 67.33 13C67.18 13.72 66.87 14.28 66.38 14.67C65.9 15.07 65.3 15.27 64.56 15.27C64.11 15.27 63.58 15.19 62.95 15.03L63.3 13.3C63.63 13.44 63.92 13.5 64.15 13.5C64.61 13.5 64.95 13.34 65.19 13C65.41 12.67 65.53 11.88 65.53 10.65L65.53 0.25L65.54 0.25Z" fill="#263238" fill-opacity="0.500000" fill-rule="nonzero"/>
	<path id="Vector" d="M78.03 7.83C78.03 5.38 78.71 3.46 80.07 2.07C81.43 0.69 83.19 0 85.34 0C86.75 0 88.02 0.32 89.15 0.97C90.28 1.63 91.15 2.53 91.74 3.7C92.34 4.86 92.63 6.18 92.63 7.66C92.63 9.16 92.32 10.5 91.7 11.68C91.07 12.86 90.19 13.76 89.04 14.36C87.89 14.97 86.65 15.27 85.33 15.27C83.89 15.27 82.61 14.94 81.47 14.27C80.34 13.6 79.48 12.68 78.89 11.52C78.32 10.35 78.03 9.13 78.03 7.83ZM80.11 7.85C80.11 9.63 80.6 11.04 81.6 12.06C82.59 13.08 83.83 13.6 85.32 13.6C86.85 13.6 88.1 13.08 89.08 12.04C90.06 11.01 90.55 9.54 90.55 7.64C90.55 6.44 90.34 5.39 89.92 4.49C89.5 3.59 88.88 2.9 88.07 2.41C87.27 1.91 86.36 1.67 85.34 1.67C83.91 1.67 82.68 2.14 81.65 3.09C80.62 4.04 80.11 5.64 80.11 7.85Z" fill="#263238" fill-opacity="0.500000" fill-rule="nonzero"/>
	<path id="Vector" d="M94.77 10.27L96.68 10.11C96.77 10.85 96.98 11.46 97.31 11.93C97.64 12.4 98.15 12.79 98.85 13.08C99.54 13.37 100.32 13.52 101.19 13.52C101.96 13.52 102.64 13.4 103.23 13.18C103.82 12.96 104.25 12.66 104.54 12.27C104.83 11.88 104.98 11.46 104.98 11.01C104.98 10.54 104.84 10.14 104.56 9.79C104.29 9.45 103.83 9.15 103.19 8.92C102.77 8.77 101.87 8.53 100.47 8.2C99.06 7.87 98.08 7.57 97.52 7.28C96.79 6.92 96.24 6.46 95.88 5.91C95.53 5.36 95.35 4.75 95.35 4.07C95.35 3.33 95.57 2.63 96 1.98C96.44 1.33 97.08 0.84 97.92 0.5C98.76 0.17 99.69 0 100.72 0C101.85 0 102.85 0.17 103.72 0.52C104.59 0.87 105.25 1.39 105.72 2.08C106.18 2.77 106.43 3.54 106.47 4.4L104.53 4.54C104.43 3.61 104.08 2.91 103.47 2.43C102.87 1.95 101.98 1.71 100.81 1.71C99.59 1.71 98.69 1.93 98.14 2.37C97.58 2.8 97.3 3.32 97.3 3.93C97.3 4.46 97.5 4.9 97.89 5.24C98.27 5.58 99.29 5.94 100.93 6.3C102.57 6.66 103.7 6.97 104.32 7.24C105.21 7.63 105.86 8.13 106.29 8.74C106.71 9.35 106.92 10.05 106.92 10.84C106.92 11.62 106.69 12.36 106.23 13.06C105.76 13.76 105.09 14.3 104.22 14.69C103.35 15.07 102.37 15.27 101.28 15.27C99.89 15.27 98.74 15.07 97.81 14.68C96.87 14.3 96.14 13.71 95.61 12.92C95.07 12.15 94.8 11.26 94.77 10.27Z" fill="#263238" fill-opacity="0.500000" fill-rule="nonzero"/>
	<path id="Vector" d="M109.97 15.02L109.97 0.25L111.98 0.25L111.98 6.32L119.93 6.32L119.93 0.25L121.95 0.25L121.95 15.01L119.93 15.01L119.93 8.06L111.98 8.06L111.98 15.02L109.97 15.02Z" fill="#263238" fill-opacity="0.500000" fill-rule="nonzero"/>
	<path id="Vector" d="M124.91 7.83C124.91 5.38 125.59 3.46 126.95 2.07C128.31 0.69 130.07 0 132.22 0C133.63 0 134.9 0.32 136.03 0.97C137.16 1.63 138.03 2.53 138.63 3.7C139.22 4.86 139.51 6.18 139.51 7.66C139.51 9.16 139.2 10.5 138.58 11.68C137.95 12.86 137.07 13.76 135.92 14.36C134.77 14.97 133.53 15.27 132.21 15.27C130.77 15.27 129.49 14.94 128.35 14.27C127.22 13.6 126.36 12.68 125.78 11.52C125.21 10.35 124.91 9.13 124.91 7.83ZM127 7.85C127 9.63 127.49 11.04 128.48 12.06C129.48 13.08 130.72 13.6 132.21 13.6C133.73 13.6 134.99 13.08 135.97 12.04C136.95 11.01 137.44 9.54 137.44 7.64C137.44 6.44 137.23 5.39 136.81 4.49C136.39 3.59 135.77 2.9 134.96 2.41C134.15 1.91 133.24 1.67 132.23 1.67C130.8 1.67 129.57 2.14 128.54 3.09C127.51 4.04 127 5.64 127 7.85Z" fill="#263238" fill-opacity="0.500000" fill-rule="nonzero"/>
	<path id="Vector" d="M142.34 15.02L142.34 0.25L148.1 0.25C149.11 0.25 149.89 0.29 150.42 0.39C151.17 0.51 151.8 0.74 152.31 1.08C152.82 1.42 153.22 1.89 153.53 2.51C153.84 3.12 154 3.79 154 4.52C154 5.78 153.58 6.84 152.75 7.71C151.93 8.58 150.43 9.01 148.28 9.01L144.36 9.01L144.36 15.01L142.34 15.01L142.34 15.02ZM144.36 7.28L148.3 7.28C149.61 7.28 150.54 7.04 151.09 6.57C151.64 6.1 151.91 5.44 151.91 4.58C151.91 3.96 151.75 3.44 151.42 3C151.1 2.56 150.67 2.27 150.15 2.13C149.81 2.04 149.18 1.99 148.26 1.99L144.36 1.99L144.36 7.28Z" fill="#263238" fill-opacity="0.500000" fill-rule="nonzero"/>
	<rect id="circle" x="18.000000" y="1.279419" rx="6.500000" width="13.000000" height="13.000000" stroke="#263238" stroke-opacity="0.500000" stroke-width="2.000000"/>
	<rect id="circle" x="1.000000" y="1.279419" rx="6.500000" width="13.000000" height="13.000000" stroke="#263238" stroke-opacity="0.500000" stroke-width="2.000000"/>
</svg>
