<svg width="154.000000" height="15.441223" viewBox="0 0 154 15.4412" fill="none" xmlns="http://www.w3.org/2000/svg" xmlns:xlink="http://www.w3.org/1999/xlink">
	<desc>
			Created with Pixso.
	</desc>
	<defs/>
	<path id="Vector" d="M35.44 15.18L35.44 0.25L41.18 0.25C42.34 0.25 43.28 0.4 43.99 0.7C44.69 1 45.24 1.47 45.64 2.1C46.04 2.72 46.24 3.38 46.24 4.07C46.24 4.71 46.06 5.31 45.71 5.87C45.36 6.44 44.82 6.89 44.1 7.24C45.03 7.5 45.74 7.95 46.23 8.59C46.73 9.23 46.98 9.98 46.98 10.85C46.98 11.55 46.83 12.2 46.52 12.8C46.22 13.41 45.85 13.87 45.4 14.19C44.95 14.51 44.4 14.76 43.73 14.93C43.06 15.1 42.23 15.18 41.26 15.18L35.44 15.18ZM37.46 6.52L40.76 6.52C41.66 6.52 42.3 6.46 42.69 6.35C43.21 6.2 43.59 5.95 43.86 5.61C44.12 5.27 44.25 4.83 44.25 4.3C44.25 3.8 44.12 3.37 43.88 3C43.64 2.62 43.29 2.36 42.84 2.22C42.39 2.08 41.62 2.01 40.52 2.01L37.47 2.01L37.47 6.52L37.46 6.52ZM37.46 13.42L41.27 13.42C41.92 13.42 42.37 13.39 42.64 13.34C43.11 13.26 43.5 13.13 43.81 12.94C44.12 12.75 44.38 12.47 44.58 12.11C44.78 11.75 44.88 11.33 44.88 10.85C44.88 10.29 44.74 9.81 44.44 9.4C44.15 8.99 43.75 8.7 43.23 8.53C42.71 8.36 41.97 8.28 41 8.28L37.46 8.28L37.46 13.42Z" fill="#263238" fill-opacity="1.000000" fill-rule="nonzero"/>
	<path id="Vector" d="M50.02 15.18L50.02 0.25L61.06 0.25L61.06 2.01L52.04 2.01L52.04 6.58L60.49 6.58L60.49 8.33L52.04 8.33L52.04 13.42L61.42 13.42L61.42 15.18L50.02 15.18Z" fill="#263238" fill-opacity="1.000000" fill-rule="nonzero"/>
	<path id="Vector" d="M65.54 0.25L75.1 0.25L75.1 15.17L73.08 15.17L73.08 2.01L67.56 2.01L67.56 9.7C67.56 11.26 67.48 12.41 67.33 13.13C67.18 13.86 66.87 14.43 66.38 14.83C65.9 15.23 65.3 15.44 64.56 15.44C64.11 15.44 63.58 15.36 62.95 15.19L63.3 13.44C63.63 13.58 63.92 13.65 64.15 13.65C64.61 13.65 64.95 13.48 65.19 13.14C65.41 12.8 65.53 12.01 65.53 10.76L65.53 0.25L65.54 0.25Z" fill="#263238" fill-opacity="1.000000" fill-rule="nonzero"/>
	<path id="Vector" d="M78.03 7.91C78.03 5.43 78.71 3.5 80.07 2.1C81.43 0.7 83.19 0 85.34 0C86.75 0 88.02 0.32 89.15 0.98C90.28 1.64 91.15 2.56 91.74 3.74C92.34 4.92 92.63 6.25 92.63 7.74C92.63 9.26 92.32 10.61 91.7 11.8C91.07 12.99 90.19 13.9 89.04 14.51C87.89 15.13 86.65 15.44 85.33 15.44C83.89 15.44 82.61 15.1 81.47 14.42C80.34 13.74 79.48 12.82 78.89 11.64C78.32 10.46 78.03 9.22 78.03 7.91ZM80.11 7.94C80.11 9.73 80.6 11.16 81.6 12.19C82.59 13.22 83.83 13.74 85.32 13.74C86.85 13.74 88.1 13.21 89.08 12.17C90.06 11.13 90.55 9.64 90.55 7.72C90.55 6.51 90.34 5.45 89.92 4.54C89.5 3.63 88.88 2.93 88.07 2.43C87.27 1.93 86.36 1.68 85.34 1.68C83.91 1.68 82.68 2.16 81.65 3.12C80.62 4.09 80.11 5.7 80.11 7.94Z" fill="#263238" fill-opacity="1.000000" fill-rule="nonzero"/>
	<path id="Vector" d="M94.77 10.38L96.68 10.22C96.77 10.97 96.98 11.58 97.31 12.06C97.64 12.54 98.15 12.93 98.85 13.21C99.54 13.51 100.32 13.66 101.19 13.66C101.96 13.66 102.64 13.54 103.23 13.32C103.82 13.1 104.25 12.79 104.54 12.4C104.83 12.01 104.98 11.59 104.98 11.12C104.98 10.65 104.84 10.25 104.56 9.9C104.29 9.55 103.83 9.25 103.19 9.01C102.77 8.86 101.87 8.62 100.47 8.29C99.06 7.96 98.08 7.65 97.52 7.36C96.79 6.99 96.24 6.52 95.88 5.97C95.53 5.42 95.35 4.8 95.35 4.11C95.35 3.36 95.57 2.65 96 2C96.44 1.35 97.08 0.85 97.92 0.51C98.76 0.17 99.69 0 100.72 0C101.85 0 102.85 0.17 103.72 0.53C104.59 0.88 105.25 1.41 105.72 2.1C106.18 2.8 106.43 3.58 106.47 4.45L104.53 4.59C104.43 3.65 104.08 2.94 103.47 2.45C102.87 1.97 101.98 1.73 100.81 1.73C99.59 1.73 98.69 1.95 98.14 2.39C97.58 2.83 97.3 3.35 97.3 3.97C97.3 4.51 97.5 4.95 97.89 5.3C98.27 5.64 99.29 6 100.93 6.36C102.57 6.73 103.7 7.04 104.32 7.31C105.21 7.72 105.86 8.22 106.29 8.83C106.71 9.45 106.92 10.15 106.92 10.95C106.92 11.75 106.69 12.49 106.22 13.2C105.76 13.9 105.09 14.45 104.22 14.84C103.35 15.23 102.37 15.43 101.28 15.43C99.89 15.43 98.74 15.23 97.81 14.84C96.87 14.45 96.14 13.85 95.61 13.06C95.07 12.28 94.8 11.38 94.77 10.38Z" fill="#263238" fill-opacity="1.000000" fill-rule="nonzero"/>
	<path id="Vector" d="M109.97 15.18L109.97 0.25L111.98 0.25L111.98 6.38L119.93 6.38L119.93 0.25L121.95 0.25L121.95 15.17L119.93 15.17L119.93 8.15L111.98 8.15L111.98 15.18L109.97 15.18Z" fill="#263238" fill-opacity="1.000000" fill-rule="nonzero"/>
	<path id="Vector" d="M124.91 7.91C124.91 5.43 125.59 3.5 126.95 2.1C128.31 0.7 130.07 0 132.22 0C133.63 0 134.9 0.32 136.03 0.98C137.16 1.64 138.03 2.56 138.63 3.74C139.22 4.92 139.51 6.25 139.51 7.74C139.51 9.26 139.2 10.61 138.58 11.8C137.95 12.99 137.07 13.9 135.92 14.51C134.77 15.13 133.53 15.44 132.21 15.44C130.77 15.44 129.49 15.1 128.35 14.42C127.22 13.74 126.36 12.82 125.78 11.64C125.2 10.46 124.91 9.22 124.91 7.91ZM127 7.94C127 9.73 127.49 11.16 128.48 12.19C129.48 13.22 130.72 13.74 132.21 13.74C133.73 13.74 134.99 13.21 135.97 12.17C136.95 11.13 137.44 9.64 137.44 7.72C137.44 6.51 137.23 5.45 136.81 4.54C136.39 3.63 135.77 2.93 134.96 2.43C134.15 1.93 133.24 1.68 132.23 1.68C130.8 1.68 129.57 2.16 128.54 3.12C127.51 4.09 127 5.7 127 7.94Z" fill="#263238" fill-opacity="1.000000" fill-rule="nonzero"/>
	<path id="Vector" d="M142.34 15.18L142.34 0.25L148.1 0.25C149.11 0.25 149.89 0.3 150.42 0.39C151.17 0.51 151.8 0.75 152.31 1.09C152.82 1.44 153.22 1.91 153.53 2.53C153.84 3.15 154 3.83 154 4.57C154 5.84 153.58 6.91 152.75 7.79C151.93 8.67 150.43 9.11 148.28 9.11L144.36 9.11L144.36 15.17L142.34 15.17L142.34 15.18ZM144.36 7.35L148.3 7.35C149.61 7.35 150.54 7.12 151.09 6.64C151.64 6.16 151.91 5.49 151.91 4.63C151.91 4.01 151.75 3.48 151.42 3.03C151.1 2.59 150.67 2.29 150.15 2.15C149.81 2.06 149.18 2.01 148.26 2.01L144.36 2.01L144.36 7.35Z" fill="#263238" fill-opacity="1.000000" fill-rule="nonzero"/>
	<rect id="circle" x="18.000000" y="1.046524" rx="6.500000" width="13.000000" height="13.000000" stroke="#263238" stroke-opacity="1.000000" stroke-width="2.000000"/>
	<rect id="circle" x="1.000000" y="1.046524" rx="6.500000" width="13.000000" height="13.000000" stroke="#263238" stroke-opacity="1.000000" stroke-width="2.000000"/>
</svg>
